HIERARCHY
ROOT Hips
{
  OFFSET 104.721 102.814 24.4489
  CHANNELS 6 Xposition Yposition Zposition Zrotation Xrotation Yrotation
  JOINT RightUpLeg
  {
    OFFSET -8.9458 -8.66707 0.101652
    CHANNELS 3 Zrotation Xrotation Yrotation
    JOINT RightLeg
    {
      OFFSET 0 -44.4227 1.3727
      CHANNELS 3 Zrotation Xrotation Yrotation
      JOINT RightFoot
      {
        OFFSET 0.253549 -42.0924 -1.46059
        CHANNELS 3 Zrotation Xrotation Yrotation
        JOINT RightToes
        {
          OFFSET 0.04 -4.41509 8.4991
          CHANNELS 3 Zrotation Xrotation Yrotation
          End Site
          {
            OFFSET -0.08 -0.137448 9.77979
          }
        }
      }
    }
  }
  JOINT Spine
  {
    OFFSET 0 11.8905 0
    CHANNELS 3 Zrotation Xrotation Yrotation
    JOINT Spine1
    {
      OFFSET 0 25.6574 0.127663
      CHANNELS 3 Zrotation Xrotation Yrotation
      JOINT HEad
      {
        OFFSET 0 8.73416 0.011341
        CHANNELS 3 Zrotation Xrotation Yrotation
        End Site
        {
          OFFSET -0.29 12.7742 2.51395
        }
      }
      JOINT LeftShoulder1
      {
        OFFSET 8.99 -0.362252 -0.22
        CHANNELS 3 Zrotation Xrotation Yrotation
        JOINT LeftArm
        {
          OFFSET 10.2827 -0.00338 0.322123
          CHANNELS 3 Zrotation Xrotation Yrotation
          JOINT LeftForeArm
          {
            OFFSET 32.7669 0.099144 -1.42434
            CHANNELS 3 Zrotation Xrotation Yrotation
            JOINT LeftHand
            {
              OFFSET 27.5643 0.085362 1.02216
              CHANNELS 3 Zrotation Xrotation Yrotation
              End Site
              {
                OFFSET 16.7443 -0.6 1.50291
              }
            }
          }
        }
      }
      JOINT RightShoulder
      {
        OFFSET -8.99 -0.362252 -0.22
        CHANNELS 3 Zrotation Xrotation Yrotation
        JOINT RightArm
        {
          OFFSET -10.2827 -0.00338 0.322123
          CHANNELS 3 Zrotation Xrotation Yrotation
          JOINT RightForeArm
          {
            OFFSET -32.8971 0.099144 -1.42434
            CHANNELS 3 Zrotation Xrotation Yrotation
            JOINT RightHand
            {
              OFFSET -27.4921 0.085362 1.02216
              CHANNELS 3 Zrotation Xrotation Yrotation
              End Site
              {
                OFFSET -16.6312 -0.6 1.50291
              }
            }
          }
        }
      }
    }
  }
  JOINT LeftUpLeg
  {
    OFFSET 8.9458 -8.66707 0.101652
    CHANNELS 3 Zrotation Xrotation Yrotation
    JOINT LeftLeg
    {
      OFFSET 0 -44.4227 1.3727
      CHANNELS 3 Zrotation Xrotation Yrotation
      JOINT LeftFoot
      {
        OFFSET -0.253549 -42.0924 -1.46059
        CHANNELS 3 Zrotation Xrotation Yrotation
        JOINT LeftToes
        {
          OFFSET -0.04 -4.41509 8.4991
          CHANNELS 3 Zrotation Xrotation Yrotation
          End Site
          {
            OFFSET 0.08 -0.047448 9.77979
          }
        }
      }
    }
  }
}
MOTION
Frames:	17
Frame Time:	0.0166667
105.745 103.39 29.0649 -2.1288 -0.0515374 -175.499 1.62144 -1.7848 -0.00904061 5.22176 41.3563 -22.3723 16.451 -4.00611 0.0087376 0.0462048 0.000533964 0.662642 -0.481089 4.7605 -0.312004 -1.96654 5.64046 0.0465147 2.51365 -2.01973 0.327886 9.93923e-017 3.18055e-015 7.95139e-016 -90.816 -27.8661 -19.1217 -22.6258 12.605 -3.31224 0.368473 9.90896 -0.00117926 -0.249056 0.0888377 -2.42407 93.6285 -17.6589 24.3878 19.5665 17.2362 29.252 -0.369625 9.91382 0.00119886 -9.52915 -23.827 -0.0659942 7.52465 32.0373 -6.12299 -0.0140598 -7.09894 0.0460678 -1.39062e-011 -8.81678e-011 5.56647e-011 
105.37 103.251 27.495 -2.89106 -0.0668194 -175.788 -0.273225 -3.91238 -1.1078 5.68871 45.5404 -23.1975 16.311 -0.0422826 -0.541903 0.174788 3.85871 4.84903 -1.20066 4.85606 -0.278675 -2.41553 5.48742 0.0528167 2.38089 -1.50921 0.516393 4.96962e-016 0 -0 -91.1489 -27.0108 -19.6435 -23.0941 12.8296 -4.58395 0.368473 9.90896 -0.00117926 -0.607586 0.104931 -2.17272 94.0839 -18.9807 22.792 19.3606 17.1212 28.8314 -0.369625 9.91382 0.00119886 -10.5193 -23.0771 0.323058 7.67968 32.682 -6.11017 0.6741 -8.11842 0.0907126 0.0901456 -0.47215 0.428902 
105.017 103.08 25.945 -3.65183 -0.129205 -176.126 -2.11049 -6.22891 -2.10572 6.19768 49.8497 -23.8353 16.1503 3.45524 -1.01813 -0.176475 6.9086 7.36442 -1.9336 4.94963 -0.243528 -2.86923 5.34183 0.0593764 2.24592 -1.15942 0.719318 4.41391e-032 3.18055e-015 -7.95139e-016 -91.3862 -26.0774 -20.1315 -23.6239 13.0937 -6.03283 0.368473 9.90896 -0.00117926 -0.984195 0.119128 -1.93285 94.5546 -20.2908 21.2734 19.1235 16.9985 28.3904 -0.369625 9.91382 0.00119886 -11.4771 -22.4322 0.556497 7.73931 33.4298 -5.97313 1.1792 -9.20026 0.127579 0.190989 -0.881551 0.885081 
104.721 102.814 24.4489 -4.44831 -0.352086 -176.614 -3.67338 -9.15499 -2.99165 6.01178 54.7403 -22.8567 15.7234 6.02266 -1.32767 -0.565042 8.27979 4.83066 -2.76725 5.05522 -0.194339 -3.35049 5.17445 0.0655991 2.12107 -1.25201 0.939813 -3.97569e-016 1.59028e-015 -7.95139e-016 -91.36 -24.9316 -20.462 -24.3716 13.4864 -8.06996 0.368473 9.90896 -0.00117926 -1.45187 0.127052 -1.73031 95.2758 -21.6545 19.9099 18.7638 16.8623 27.9733 -0.369625 9.91382 0.00119886 -12.3662 -22.1187 0.272228 7.49392 34.4945 -5.41625 1.09503 -10.4591 0.13824 0.322672 -1.12682 1.48995 
104.459 102.521 22.9843 -5.17114 -0.584163 -177.153 -5.02172 -12.1939 -3.38907 5.80509 59.4949 -22.081 15.24 7.1894 -1.44267 -0.610281 7.69808 0.339901 -3.4927 5.12292 -0.160539 -3.80972 5.10285 0.0743121 1.98557 -1.5847 1.22653 -1.98785e-016 0 -7.95139e-016 -91.2566 -23.6585 -20.8968 -25.1076 13.8964 -10.1728 0.368473 9.90896 -0.00117926 -1.8632 0.134232 -1.53346 95.9335 -22.7782 18.8328 18.4373 16.7055 27.3645 -0.369625 9.91382 0.00119886 -13.0914 -21.882 -0.0366664 7.13311 35.6442 -4.79662 0.89891 -11.8005 0.145599 0.431706 -1.26119 1.98804 
104.217 102.255 21.5452 -5.70783 -0.688582 -177.674 -6.00394 -14.962 -2.62454 7.78379 63.4513 -24.6716 14.9061 5.79564 -1.23519 -0.545656 3.90071 -4.35492 -3.86775 5.08139 -0.181223 -4.22346 5.29899 0.0908845 1.80451 -2.09396 1.65497 9.93923e-017 -1.59028e-015 3.97569e-016 -91.1663 -22.2708 -21.6866 -25.6738 14.2748 -11.9726 0.368473 9.90896 -0.00117926 -2.05711 0.146394 -1.30139 96.2252 -23.1263 18.302 18.3786 16.5183 26.3193 -0.369625 9.91382 0.00119886 -13.5158 -21.5164 0.0612389 6.78763 36.7108 -4.40465 0.983299 -13.212 0.167315 0.429458 -1.22616 1.97626 
104.003 102.002 20.1171 -6.08467 -0.734174 -178.184 -6.59231 -17.5631 -1.45491 11.0462 66.5391 -28.6794 14.5948 3.44446 -0.91334 -0.957052 -0.959169 -8.31951 -4.07905 5.00909 -0.215226 -4.53653 5.57042 0.107133 1.63554 -2.64472 2.14829 -4.96962e-017 -1.59028e-015 -3.97569e-016 -91.1251 -20.8602 -22.7029 -26.1049 14.5868 -13.3982 0.368473 9.90896 -0.00117926 -2.14795 0.158581 -1.0877 96.4664 -23.476 18.0347 18.2385 16.2772 24.9737 -0.369625 9.91382 0.00119886 -13.7688 -21.1058 0.373592 6.55232 37.7278 -4.2125 1.20303 -14.5622 0.201813 0.43816 -1.2564 2.01869 
103.835 101.761 18.6843 -6.2738 -0.771575 -178.674 -6.85217 -20.0105 -0.467912 13.7491 68.638 -31.7503 14.1495 1.46895 -0.653874 -1.17621 -5.12969 -9.607 -4.20247 4.97502 -0.245554 -4.70591 5.71609 0.116183 1.53603 -3.06844 2.6881 -6.95746e-016 -1.59028e-015 1.98785e-016 -91.1737 -19.5369 -23.8696 -26.4053 14.7923 -14.2648 0.368473 9.90896 -0.00117926 -2.18089 0.169675 -0.907821 96.938 -24.7115 17.8568 17.5791 15.914 23.228 -0.369625 9.91382 0.00119886 -13.93 -20.712 0.90261 6.62154 38.6791 -4.36969 1.59173 -15.6637 0.258522 0.607463 -1.68617 2.7665 
103.674 101.54 17.2459 -6.32887 -0.718866 -179.131 -6.8794 -22.1816 0.394085 15.8583 69.9056 -33.7183 13.8004 -0.478399 -0.408862 -1.18524 -8.86964 -9.74471 -4.32782 4.93624 -0.238807 -4.67077 5.93372 0.119389 1.44489 -3.40279 3.17316 5.46658e-016 0 -0 -91.4317 -18.2459 -25.2872 -26.5429 14.883 -14.5348 0.368473 9.90896 -0.00117926 -2.20215 0.173886 -0.835309 97.3024 -25.997 17.6875 16.8869 15.5492 21.5508 -0.369625 9.91382 0.00119886 -14.0117 -20.1915 1.49662 6.85133 39.5429 -4.65064 2.00551 -16.6713 0.32208 0.798476 -2.15614 3.55651 
103.473 101.332 15.7934 -6.26 -0.465829 -179.556 -6.79752 -23.9247 0.911049 16.7495 70.4889 -33.4176 13.8025 -2.33735 -0.187676 -1.16365 -11.7822 -9.4761 -4.60537 4.86828 -0.125448 -4.25224 6.43843 0.114481 1.29587 -3.64597 3.49374 3.72721e-016 0 2.98177e-016 -92.1493 -16.9913 -27.1403 -26.4268 14.7979 -13.9739 0.368473 9.90896 -0.00117926 -2.32279 0.161717 -0.986154 97.255 -26.613 17.3594 16.634 15.343 20.4514 -0.369625 9.91382 0.00119886 -14.028 -19.4044 2.00195 7.14945 40.3604 -4.85668 2.33131 -17.7248 0.386244 0.892444 -2.34293 3.94785 
103.276 101.177 14.3347 -6.16259 -0.148025 -179.895 -6.71054 -25.3562 1.27005 16.7209 70.2675 -31.8772 13.9104 -3.99804 0.00503129 -1.05523 -13.9945 -9.02483 -4.92873 4.78465 0.00304791 -3.76124 6.97702 0.105461 1.14965 -3.74949 3.65585 -4.72114e-016 -1.59028e-015 -9.93923e-017 -92.9485 -15.7051 -29.0951 -26.1979 14.6228 -12.997 0.368473 9.90896 -0.00117926 -2.39367 0.143168 -1.24847 96.9742 -27.0844 16.9016 16.5438 15.2148 19.6764 -0.369625 9.91382 0.00119886 -14.0526 -18.4096 2.42842 7.47966 40.9313 -5.01003 2.50714 -18.6814 0.432366 0.891406 -2.47934 3.92097 
103.101 101.121 12.8826 -6.16759 0.144969 179.939 -6.77332 -26.5315 1.58398 16.4342 69.1219 -30.2152 13.9533 -5.36224 0.165943 -1.08116 -15.2116 -9.16392 -5.24147 4.69078 0.0727391 -3.47984 7.3748 0.0955849 1.03144 -3.63273 3.58256 -6.95746e-016 -3.18055e-015 -9.93923e-017 -93.5436 -14.2517 -30.9167 -25.9793 14.4068 -11.858 0.368473 9.90896 -0.00117926 -2.30526 0.125896 -1.54792 96.5604 -27.7854 16.2885 16.4407 15.1214 19.1443 -0.369625 9.91382 0.00119886 -14.2102 -17.182 2.63971 7.75375 41.0045 -4.93593 2.32266 -19.374 0.422083 0.70512 -2.86354 3.02664 
102.966 101.137 11.4136 -6.19707 0.385268 179.849 -6.84701 -27.4752 1.88936 15.8916 67.0957 -28.74 13.9527 -6.33516 0.279255 -1.07364 -16.2294 -9.0892 -5.54552 4.58662 0.100692 -3.31647 7.61137 0.0848459 0.990354 -3.38973 3.4136 4.47266e-016 4.77083e-015 1.49089e-016 -93.9634 -12.874 -32.5336 -25.7352 14.2024 -10.8051 0.368473 9.90896 -0.00117926 -2.04961 0.107441 -1.88786 95.9111 -28.455 15.5225 16.4531 15.0779 18.8584 -0.369625 9.91382 0.00119886 -14.3372 -15.8338 2.92984 8.02311 40.7736 -5.01677 2.10294 -20.0152 0.405805 0.497231 -2.9739 2.11352 
102.915 101.226 9.89196 -6.21008 0.503228 179.766 -6.82064 -28.2258 2.28852 15.0023 64.1525 -28.058 13.8459 -6.63433 0.308081 -0.766908 -18.1987 -7.86437 -5.82556 4.46709 0.0697246 -3.31543 7.55931 0.0751744 1.14865 -3.03231 3.253 4.84538e-016 -1.59028e-015 -1.73937e-016 -94.1408 -11.7877 -33.7298 -25.4764 14.0975 -10.205 0.368473 9.90896 -0.00117926 -1.48112 0.0895613 -2.23848 94.8538 -28.9197 14.5804 16.6881 15.0762 18.7542 -0.369625 9.91382 0.00119886 -14.2952 -14.4341 3.63068 8.29923 40.3127 -5.73108 2.18182 -20.8992 0.435287 0.478337 -2.02739 2.11782 
102.897 101.347 8.36672 -6.22192 0.53463 179.692 -6.72996 -28.7942 2.71119 13.8324 60.512 -27.6531 13.7156 -6.72477 0.31064 -0.389279 -19.7839 -6.63291 -6.07757 4.35262 0.00868225 -3.35166 7.36509 0.0640787 1.31304 -2.7264 3.13107 -1.12127e-015 1.59028e-015 -1.11816e-016 -94.2205 -10.8682 -34.6905 -25.2303 14.0667 -9.9455 0.368473 9.90896 -0.00117926 -0.903063 0.0672604 -2.62493 93.7354 -29.2797 13.5221 17.0235 15.1327 18.9564 -0.369625 9.91382 0.00119886 -14.2255 -13.0828 4.46618 8.57997 39.7188 -6.59584 2.33257 -21.6147 0.471653 0.501673 -1.10793 2.33248 
102.864 101.457 6.88813 -6.2353 0.498427 179.588 -6.58058 -29.2185 3.1814 12.5991 56.3688 -27.3514 13.607 -7.118 0.348828 -0.384476 -19.7132 -6.62062 -6.29789 4.27049 -0.0530839 -3.27819 7.17591 0.0486785 1.25782 -2.71519 3.14222 -1.73937e-016 0 -9.93923e-017 -94.3612 -10.0861 -35.5755 -24.9989 14.1148 -10.0613 0.368473 9.90896 -0.00117926 -0.661985 0.0316781 -3.10547 92.9587 -29.5747 12.4042 17.3541 15.2748 19.6903 -0.369625 9.91382 0.00119886 -14.2016 -11.9248 5.32719 8.93379 39.1101 -7.29663 2.43739 -21.7107 0.490217 0.496266 -1.35578 2.27867 
102.847 101.567 5.41639 -6.24573 0.37546 179.517 -6.36039 -29.4571 3.51432 11.0454 51.7265 -26.9818 13.5824 -7.39187 0.376296 -0.448921 -18.9367 -6.79076 -6.46911 4.1951 -0.134361 -3.20492 6.86224 0.0320488 1.19297 -2.77934 3.19688 -3.10601e-016 -6.36111e-015 2.98177e-016 -94.3831 -9.3876 -36.2338 -24.8508 14.2275 -10.483 0.368473 9.90896 -0.00117926 -0.483254 -0.00379906 -3.55089 92.1825 -29.8177 11.2167 17.7205 15.4482 20.594 -0.369625 9.91382 0.00119886 -14.1891 -10.8976 6.06836 9.23489 38.5215 -7.85511 2.49553 -21.6015 0.496972 0.490975 -1.81613 2.20436 
